<?xml version="1.0" standalone="no"?>
<!DOCTYPE svg PUBLIC "-//W3C//DTD SVG 20010904//EN"
 "http://www.w3.org/TR/2001/REC-SVG-20010904/DTD/svg10.dtd">
<svg version="1.0" xmlns="http://www.w3.org/2000/svg"
 width="500.000000pt" height="500.000000pt" viewBox="0 0 500.000000 500.000000"
 preserveAspectRatio="xMidYMid meet">

<g transform="translate(0.000000,500.000000) scale(0.100000,-0.100000)"
fill="#000000" stroke="none">
<path d="M2234 3598 l-122 -112 -127 -326 c-71 -179 -179 -449 -241 -601 -63
-152 -114 -279 -114 -283 0 -3 33 -6 73 -6 l74 0 17 38 18 39 149 10 c142 9
151 11 167 34 9 13 38 48 65 76 l49 53 -174 2 -175 3 68 160 c38 88 106 253
151 367 46 114 86 204 90 200 3 -4 48 -145 99 -314 l92 -307 37 19 c20 10 77
35 126 55 49 21 90 39 92 40 3 2 -149 527 -274 948 -3 9 -8 17 -12 17 -4 -1
-62 -51 -128 -112z"/>
<path d="M1089 3592 c-215 -56 -355 -268 -410 -621 -11 -70 -24 -156 -30 -192
-17 -110 -68 -178 -150 -202 -18 -6 -132 -193 -125 -206 3 -4 26 -14 52 -21
65 -18 158 -82 190 -129 39 -60 41 -132 9 -331 -34 -204 -32 -299 7 -375 55
-108 163 -181 282 -192 63 -6 63 -6 102 33 50 50 134 149 134 158 0 3 -28 6
-62 6 -157 0 -291 75 -346 193 -41 88 -47 173 -23 342 23 165 27 288 10 332
-16 43 -49 73 -113 104 -59 28 -59 28 -32 39 15 5 31 10 35 10 4 0 27 13 49
30 73 53 85 90 122 397 11 89 29 191 41 228 39 116 110 175 234 193 53 8 58
12 164 163 l42 59 -58 -1 c-32 0 -87 -8 -124 -17z"/>
<path d="M3951 3514 c-35 -38 -72 -81 -83 -96 l-19 -28 43 0 c177 -1 326 -91
379 -229 27 -70 29 -200 5 -348 -9 -57 -16 -141 -16 -188 0 -130 31 -178 145
-223 l48 -19 -47 -13 c-65 -18 -131 -78 -150 -138 -9 -26 -25 -123 -36 -217
-24 -199 -35 -261 -62 -333 -37 -99 -104 -150 -212 -161 l-59 -6 -79 -109 -79
-109 88 5 c76 3 100 9 164 40 96 45 174 123 228 227 68 131 89 217 141 556 16
106 70 184 138 200 21 5 40 27 85 101 31 52 57 98 57 103 0 4 -19 14 -42 21
-100 29 -188 96 -219 165 -25 55 -24 123 7 305 43 254 25 359 -76 460 -63 64
-129 94 -216 98 l-70 4 -63 -68z"/>
<path d="M2905 2725 c-238 -55 -480 -163 -592 -262 -44 -39 -153 -171 -153
-185 0 -5 31 -8 69 -8 l68 0 39 66 c111 189 331 304 581 304 205 -1 363 -49
363 -112 0 -17 6 -16 59 12 73 39 144 110 135 134 -27 71 -356 101 -569 51z"/>
<path d="M2645 2496 c-68 -32 -177 -115 -171 -132 3 -7 10 -31 16 -53 l11 -41
144 0 c80 0 145 4 145 8 0 5 -7 28 -14 53 -8 24 -24 77 -36 117 -11 39 -26 72
-33 71 -7 0 -34 -10 -62 -23z"/>
<path d="M1260 2143 c0 -26 -3 -72 -6 -100 -6 -48 -5 -53 12 -52 10 0 15 2 9
5 -6 2 -9 30 -7 65 l4 60 59 -62 c36 -39 63 -59 68 -53 15 15 18 184 4 184 -6
0 -15 -4 -18 -10 -3 -5 -1 -10 4 -10 7 0 11 -26 11 -65 0 -36 -4 -65 -9 -65
-14 0 -111 110 -111 125 0 8 -4 17 -10 20 -6 4 -10 -12 -10 -42z"/>
<path d="M1477 2178 c-9 -6 -8 -8 1 -8 10 0 13 -21 10 -91 l-3 -91 47 4 c59 6
96 30 114 74 20 48 -1 97 -48 113 -36 12 -102 11 -121 -1z m98 -12 c74 -31 75
-127 1 -156 -62 -23 -66 -18 -66 74 0 78 3 88 28 95 1 1 18 -5 37 -13z"/>
<path d="M1750 2181 l-35 -6 0 -93 0 -92 45 2 c38 1 40 2 12 5 -32 4 -33 6
-30 46 3 38 6 43 33 48 l30 7 -32 1 c-31 1 -33 3 -33 36 0 33 2 35 34 35 19 0
38 5 41 10 7 11 -9 11 -65 1z"/>
<path d="M1880 2188 c-1 -2 -2 -47 -3 -101 -2 -85 0 -97 15 -97 9 0 20 5 23
10 3 6 1 10 -4 10 -12 0 -15 99 -5 138 7 25 36 29 54 7 15 -19 5 -65 -15 -65
-23 0 -18 -12 26 -57 44 -46 46 -48 69 -33 13 9 13 10 -1 10 -8 0 -30 16 -49
35 -32 33 -33 36 -17 53 23 25 22 69 -2 82 -17 8 -90 15 -91 8z"/>
<path d="M2135 2180 c-20 -8 -14 -10 40 -10 3 0 5 3 6 8 0 11 -23 12 -46 2z"/>
<path d="M2304 2180 c-31 -12 -74 -68 -74 -96 0 -32 25 -80 45 -88 64 -24 145
30 145 97 0 49 -8 65 -41 82 -31 17 -44 18 -75 5z m73 -36 c21 -21 25 -32 20
-65 -7 -50 -22 -69 -57 -69 -42 0 -59 9 -76 42 -43 83 48 157 113 92z"/>
<path d="M2486 2170 c-12 -51 -11 -180 0 -180 7 0 12 6 11 13 0 6 1 36 1 64
l2 52 60 -64 c39 -42 62 -60 67 -52 13 21 19 187 7 187 -18 0 -24 -13 -13 -27
7 -8 9 -33 4 -69 l-7 -56 -45 43 c-24 24 -53 60 -63 79 -18 35 -18 35 -24 10z"/>
<path d="M2895 2182 c14 -15 40 -19 43 -7 1 6 -10 11 -25 13 -19 2 -25 0 -18
-6z"/>
<path d="M3053 2176 c-62 -28 -83 -117 -38 -161 28 -28 63 -32 105 -10 61 32
79 102 38 149 -29 32 -64 39 -105 22z m62 -12 c43 -17 54 -103 18 -139 -38
-38 -123 4 -123 60 0 28 16 66 34 77 14 9 49 10 71 2z"/>
<path d="M3285 2181 c-32 -14 -57 -48 -51 -68 4 -11 22 -27 41 -36 20 -9 38
-24 42 -33 7 -20 -24 -47 -47 -41 -8 3 -21 6 -29 8 -7 2 -16 -2 -18 -8 -8 -22
61 -15 91 8 38 30 33 55 -14 79 -23 12 -44 28 -47 36 -8 23 17 45 48 42 16 -1
29 2 29 7 1 13 -20 16 -45 6z"/>
<path d="M3384 2178 c-3 -5 9 -8 26 -8 l31 0 -3 -90 c-3 -78 -1 -90 13 -90 9
0 17 6 16 13 0 6 1 47 1 90 l2 77 34 0 c19 0 38 5 42 11 4 7 -19 10 -76 7 -45
-2 -84 -6 -86 -10z"/>
<path d="M1113 2168 c-6 -7 -26 -50 -46 -95 -26 -63 -31 -83 -20 -83 8 0 11 5
8 10 -13 20 24 60 54 60 25 0 31 -6 41 -35 7 -20 18 -35 27 -35 11 0 13 5 8
18 -4 9 -17 49 -29 89 -24 81 -29 89 -43 71z m16 -75 c1 -7 -8 -13 -19 -13
-23 0 -23 0 -9 37 10 26 12 27 19 8 5 -11 9 -26 9 -32z"/>
<path d="M3642 2163 c-5 -10 -19 -45 -32 -78 -13 -33 -30 -68 -38 -77 -14 -16
-13 -18 7 -18 12 0 20 4 16 9 -3 5 0 21 6 35 10 20 19 26 45 26 30 0 34 -3 40
-35 4 -25 11 -35 25 -35 22 0 23 3 9 28 -5 9 -19 50 -31 90 -21 74 -32 85 -47
55z m18 -42 c0 -5 3 -16 6 -25 4 -12 0 -16 -15 -16 -22 0 -25 8 -15 34 7 17
24 22 24 7z"/>
<path d="M2811 2144 c-30 -38 -28 -98 4 -129 25 -26 77 -33 105 -15 11 7 5 10
-23 10 -57 0 -91 38 -84 93 3 23 14 47 23 54 10 7 13 13 7 13 -7 0 -21 -12
-32 -26z"/>
<path d="M2087 2147 c-13 -32 -8 -46 22 -62 42 -21 63 -45 56 -64 -5 -14 -4
-14 11 1 22 22 13 42 -35 72 -24 15 -41 35 -43 48 -3 21 -4 21 -11 5z"/>
<path d="M2077 2013 c-15 -15 -5 -23 27 -23 19 0 37 4 40 9 4 5 -3 7 -14 4
-11 -3 -26 0 -33 6 -8 6 -17 8 -20 4z"/>
<path d="M1449 1876 c-59 -118 -118 -188 -193 -227 l-68 -36 129 -7 c141 -8
216 3 341 50 73 28 209 98 172 89 -37 -9 -340 -19 -340 -11 0 4 25 48 55 98
30 50 55 95 55 100 0 4 -27 8 -60 8 l-59 0 -32 -64z"/>
<path d="M2026 1903 c-11 -68 -6 -212 9 -291 9 -46 34 -115 62 -172 39 -79 61
-109 133 -181 74 -75 101 -94 191 -138 123 -60 236 -89 374 -98 126 -7 221 15
368 86 90 43 224 128 215 136 -2 1 -43 -8 -93 -20 -105 -27 -242 -45 -337 -45
-247 0 -497 131 -613 320 -59 97 -105 272 -105 401 l0 39 -99 0 -98 0 -7 -37z"/>
<path d="M2610 1913 c23 -72 80 -266 78 -268 -2 -1 -19 -11 -38 -24 l-35 -22
160 4 c153 3 163 5 240 36 44 17 121 52 170 76 l90 45 -60 -6 c-76 -6 -256 12
-271 29 -6 6 -21 45 -33 85 l-22 72 -144 0 -144 0 9 -27z"/>
</g>
</svg>
